<?xml version="1.0" standalone="no"?><!DOCTYPE svg PUBLIC "-//W3C//DTD SVG 1.1//EN" "http://www.w3.org/Graphics/SVG/1.1/DTD/svg11.dtd"><svg t="1708942608414" class="icon" viewBox="0 0 1340 1024" version="1.1" xmlns="http://www.w3.org/2000/svg" p-id="4424" xmlns:xlink="http://www.w3.org/1999/xlink" width="261.71875" height="200"><path d="M1217.47631 158.996884H629.591433l-64.715673-112.145677A32.005866 32.005866 0 0 0 537.171757 30.848274H64.138821a64.136877 64.136877 0 0 0-64.136877 64.136877v736.791934a64.136877 64.136877 0 0 0 64.136877 64.136878h602.260923l47.492575 108.923189a32.021509 32.021509 0 0 0 29.409105 19.147205h474.174886a64.136877 64.136877 0 0 0 64.136877-64.136878v-736.791934a64.136877 64.136877 0 0 0-64.136877-64.058661z m-1153.337489-64.136878h454.527101l425.368286 736.791934H64.138821z m811.738222 490.615827l51.622365-143.275527a150.61216 150.61216 0 0 0 6.257256-27.078277h1.282738c2.158753 12.811732 4.161075 21.900397 6.006966 27.078277l58.552276 161.218209h-113.381485z m-12.013932 310.375557l-104.809044 52.373236-22.823342-52.373236z m353.534983 64.136878H879.005671l134.92209-67.515796-0.078216-0.156432a31.802505 31.802505 0 0 0 13.531317-44.536022l-115.759242-200.623281h103.557592l39.420715 106.091781h55.345432l-147.639963-387.699603h-53.5934l-63.511152 166.755882-178.55081-309.249252h550.826276z m0 0" p-id="4425"></path><path d="M394.850462 550.935778v47.66465h-30.910847c-1.861534 23.464711-12.670944 52.889459-28.314085 76.35417-28.673877 43.566147-70.003055 63.683226-89.744699 63.683227-33.898686 0-71.52044-15.643141-107.265016-37.621754l6.257256-12.279866a113.068622 113.068622 0 0 0 54.750993 13.406172c37.543538 0 71.52044-18.630981 103.541949-51.403361 17.88011-18.239902 30.175619-33.147815 35.009349-52.138588h-18.177329c-75.978735 0-114.711152-24.199939-114.711152-76.354171a100.8044 100.8044 0 0 1 18.990773-59.960159c14.078827-20.476871 33.883043-35.744577 57.347754-35.744576 34.274122 0 69.643263 48.040086 80.077238 124.394256zM308.077959 334.919646a32.600306 32.600306 0 0 0-8.947876-4.098503c-20.852307 26.436908-58.47406 41.344821-77.840269 48.415521-5.960037 0-34.258478-2.236969-36.870883-6.710908l-0.735228-1.861534c33.147815-13.030736 70.753926-27.547571 93.107975-44.317018-29.800183-5.209166-45.020959-16.378368-45.02096-37.981546 0-28.673877 27.187779-51.027925 50.65249-51.027925 14.157042 0 32.021509 13.406172 32.02151 52.889459a53.186679 53.186679 0 0 1-2.221326 15.643141 30.394623 30.394623 0 0 1 13.406171 4.833731z m2.23697 161.640574c-11.920073-13.406172-25.70168-20.86795-39.483288-20.86795-20.852307 0-42.095692 17.88011-42.095692 32.77238 0 19.006416 17.504675 30.175619 40.672166 36.870883 20.476871 5.600244 42.83092 5.600244 67.030859 5.600245-4.161075-20.86795-13.468744-40.593951-26.124045-54.375558z m-14.532478-192.926856a20.961809 20.961809 0 0 0 1.110663-6.710908c-0.359792-16.753804-11.935716-36.432875-26.014543-36.432875-11.169203 0-21.603178 8.197006-21.603178 15.267706-0.046929 12.608372 18.568408 22.275833 46.507058 27.876077z" fill="#231815" p-id="4426"></path><path d="M401.185934 550.935778c31.661717 0 56.987962-1.126306 73.36633-7.086343 13.046379-4.833731 21.227742-10.05854 21.227743-16.378369 0-17.504675-17.864467-54.015765-37.230676-91.997311a293.95026 293.95026 0 0 1 27.923007-42.017476h1.84589c17.129239 30.159976 37.246318 76.65139 37.246319 113.584845 0 27.93865-11.169203 49.541827-26.077116 69.283471-16.753804 16.753804-43.190712 22.338405-100.116102 22.338405h-4.473938c-20.476871 0-26.061473-14.89227-26.061472-24.950809 0-8.947877 5.960037-22.713841 26.061472-22.713841z m121.046624-237.61931a180.240269 180.240269 0 0 1-14.532478 25.388818c-37.246318 5.960037-69.643263 15.643141-96.831042 27.938649l-0.750871-1.126306 8.947877-15.643141a46.037764 46.037764 0 0 1 17.129239-12.295508v-1.110663c-17.504675-5.209166-29.049313-16.394012-29.049313-32.396945 0-10.05854 7.0707-23.089276 17.504675-32.77238 12.295509-11.920073 29.800183-21.227742 45.067889-21.227742 14.89227 0 23.464711 8.556798 23.464711 18.239902s-5.960037 17.129239-11.920073 24.215582h-0.766514c-4.098503-8.197006-7.82157-13.406172-11.920073-14.532478a48.697097 48.697097 0 0 0-11.544638-1.110663c-13.030736 0-26.061473 7.446135-26.061473 13.030736 0 17.88011 31.286282 23.840147 53.186679 23.840147 12.670944 0 25.326245-0.750871 37.997189-1.564314z" fill="#231815" p-id="4427"></path></svg>