<?xml version="1.0" standalone="no"?><!DOCTYPE svg PUBLIC "-//W3C//DTD SVG 1.1//EN" "http://www.w3.org/Graphics/SVG/1.1/DTD/svg11.dtd"><svg t="1708951316523" class="icon" viewBox="0 0 1024 1024" version="1.1" xmlns="http://www.w3.org/2000/svg" p-id="8668" xmlns:xlink="http://www.w3.org/1999/xlink" width="200" height="200"><path d="M508.1 512m-497 0a497 497 0 1 0 994 0 497 497 0 1 0-994 0Z" fill="#34E2C0" p-id="8669"></path><path d="M860.5 770.1H155.6c-1.4 0-2.5-1.1-2.5-2.5V427.2c0-1.4 1.1-2.5 2.5-2.5h704.8c1.4 0 2.5 1.1 2.5 2.5v340.4c0.1 1.4-1 2.5-2.4 2.5z" fill="#DDDDDD" p-id="8670"></path><path d="M860.5 777.1H155.6c-5.3 0-9.5-4.3-9.5-9.5V427.2c0-5.3 4.3-9.5 9.5-9.5h704.8c5.3 0 9.5 4.3 9.5 9.5v340.4c0.1 5.2-4.2 9.5-9.4 9.5z m-700.4-14H856V431.6H160.1v331.5z" fill="#151616" p-id="8671"></path><path d="M243.6 523.4m-11.6 0a11.6 11.6 0 1 0 23.2 0 11.6 11.6 0 1 0-23.2 0Z" fill="#0F0F0F" p-id="8672"></path><path d="M319.2 523.4m-11.6 0a11.6 11.6 0 1 0 23.2 0 11.6 11.6 0 1 0-23.2 0Z" fill="#0F0F0F" p-id="8673"></path><path d="M394.7 523.4m-11.6 0a11.6 11.6 0 1 0 23.2 0 11.6 11.6 0 1 0-23.2 0Z" fill="#0F0F0F" p-id="8674"></path><path d="M470.3 523.4m-11.6 0a11.6 11.6 0 1 0 23.2 0 11.6 11.6 0 1 0-23.2 0Z" fill="#0F0F0F" p-id="8675"></path><path d="M545.8 523.4m-11.6 0a11.6 11.6 0 1 0 23.2 0 11.6 11.6 0 1 0-23.2 0Z" fill="#0F0F0F" p-id="8676"></path><path d="M621.4 523.4m-11.6 0a11.6 11.6 0 1 0 23.2 0 11.6 11.6 0 1 0-23.2 0Z" fill="#0F0F0F" p-id="8677"></path><path d="M696.9 523.4m-11.6 0a11.6 11.6 0 1 0 23.2 0 11.6 11.6 0 1 0-23.2 0Z" fill="#0F0F0F" p-id="8678"></path><path d="M772.5 523.4m-11.6 0a11.6 11.6 0 1 0 23.2 0 11.6 11.6 0 1 0-23.2 0Z" fill="#0F0F0F" p-id="8679"></path><path d="M243.6 597.4m-11.6 0a11.6 11.6 0 1 0 23.2 0 11.6 11.6 0 1 0-23.2 0Z" fill="#0F0F0F" p-id="8680"></path><path d="M319.2 597.4m-11.6 0a11.6 11.6 0 1 0 23.2 0 11.6 11.6 0 1 0-23.2 0Z" fill="#0F0F0F" p-id="8681"></path><path d="M394.7 597.4m-11.6 0a11.6 11.6 0 1 0 23.2 0 11.6 11.6 0 1 0-23.2 0Z" fill="#0F0F0F" p-id="8682"></path><path d="M470.3 597.4m-11.6 0a11.6 11.6 0 1 0 23.2 0 11.6 11.6 0 1 0-23.2 0Z" fill="#0F0F0F" p-id="8683"></path><path d="M545.8 597.4m-11.6 0a11.6 11.6 0 1 0 23.2 0 11.6 11.6 0 1 0-23.2 0Z" fill="#0F0F0F" p-id="8684"></path><path d="M621.4 597.4m-11.6 0a11.6 11.6 0 1 0 23.2 0 11.6 11.6 0 1 0-23.2 0Z" fill="#0F0F0F" p-id="8685"></path><path d="M696.9 597.4m-11.6 0a11.6 11.6 0 1 0 23.2 0 11.6 11.6 0 1 0-23.2 0Z" fill="#0F0F0F" p-id="8686"></path><path d="M772.5 597.4m-11.6 0a11.6 11.6 0 1 0 23.2 0 11.6 11.6 0 1 0-23.2 0Z" fill="#0F0F0F" p-id="8687"></path><path d="M243.6 671.4m-11.6 0a11.6 11.6 0 1 0 23.2 0 11.6 11.6 0 1 0-23.2 0Z" fill="#0F0F0F" p-id="8688"></path><path d="M319.2 671.4m-11.6 0a11.6 11.6 0 1 0 23.2 0 11.6 11.6 0 1 0-23.2 0Z" fill="#0F0F0F" p-id="8689"></path><path d="M696.9 671.4m-11.6 0a11.6 11.6 0 1 0 23.2 0 11.6 11.6 0 1 0-23.2 0Z" fill="#0F0F0F" p-id="8690"></path><path d="M772.5 671.4m-11.6 0a11.6 11.6 0 1 0 23.2 0 11.6 11.6 0 1 0-23.2 0Z" fill="#0F0F0F" p-id="8691"></path><path d="M621.4 678.4H394.7c-3.9 0-7-3.1-7-7s3.1-7 7-7h226.7c3.9 0 7 3.1 7 7s-3.1 7-7 7z" fill="#0E0E0E" p-id="8692"></path><path d="M509.3 418.4c-3.9 0-7-3.1-7-7 0-0.7 0-68.8 0.1-90.2 0-3.1-0.3-6.7-0.6-10.5-1.2-14.9-2.7-33.4 10.7-47.6 12.6-13.3 35.9-19.3 71.1-18.3 17.3 0.5 27.8 0.7 34.1 0.8l0.1-1.2s0.3 0 0.8 0.1c3.7 0.2 23.9 0.6 38.2-12 9.5-8.3 14.6-20.9 15.3-37.4 2.5-60.8 3.4-81.7 3.4-81.9 0.2-3.9 3.4-6.9 7.3-6.7 3.9 0.2 6.9 3.4 6.7 7.3 0 0.2-0.9 21.1-3.4 81.9-0.8 20.5-7.6 36.4-20.1 47.4-10.6 9.3-23.2 13.1-33 14.5-1.1 1-2.6 1.7-4.5 1.9-0.5 0.1-1.2 0.1-2 0.1h-7.3c-7.5-0.1-19.5-0.3-35.8-0.8-30.6-0.9-50.9 3.8-60.6 14-9.1 9.6-8 23.4-6.9 36.8 0.3 4.1 0.7 8 0.6 11.6-0.1 21.4-0.1 89.5-0.1 90.2-0.1 3.9-3.2 7-7.1 7z" fill="#151616" p-id="8693"></path></svg>